<svg width="28" height="7" viewBox="0 0 28 7" fill="none" xmlns="http://www.w3.org/2000/svg">
<path d="M3.28467 0.411621C4.19613 0.411621 4.95378 0.685059 5.55762 1.23193C6.16146 1.76742 6.46338 2.45671 6.46338 3.2998C6.46338 4.1429 6.16146 4.83789 5.55762 5.38477C4.95378 5.92025 4.19613 6.18799 3.28467 6.18799C2.36182 6.18799 1.59847 5.91455 0.994629 5.36768C0.402181 4.8208 0.105957 4.13151 0.105957 3.2998C0.105957 2.4681 0.402181 1.77881 0.994629 1.23193C1.59847 0.685059 2.36182 0.411621 3.28467 0.411621ZM13.8804 0.411621C14.7918 0.411621 15.5495 0.685059 16.1533 1.23193C16.7572 1.76742 17.0591 2.45671 17.0591 3.2998C17.0591 4.1429 16.7572 4.83789 16.1533 5.38477C15.5495 5.92025 14.7918 6.18799 13.8804 6.18799C12.9575 6.18799 12.1942 5.91455 11.5903 5.36768C10.9979 4.8208 10.7017 4.13151 10.7017 3.2998C10.7017 2.4681 10.9979 1.77881 11.5903 1.23193C12.1942 0.685059 12.9575 0.411621 13.8804 0.411621ZM24.4761 0.411621C25.3875 0.411621 26.1452 0.685059 26.749 1.23193C27.3529 1.76742 27.6548 2.45671 27.6548 3.2998C27.6548 4.1429 27.3529 4.83789 26.749 5.38477C26.1452 5.92025 25.3875 6.18799 24.4761 6.18799C23.5532 6.18799 22.7899 5.91455 22.186 5.36768C21.5936 4.8208 21.2974 4.13151 21.2974 3.2998C21.2974 2.4681 21.5936 1.77881 22.186 1.23193C22.7899 0.685059 23.5532 0.411621 24.4761 0.411621Z" fill="#A5BCB4"/>
</svg>
