<svg width="30" height="30" viewBox="0 0 30 30" fill="none" xmlns="http://www.w3.org/2000/svg">
<g clip-path="url(#clip0)">
<path d="M28.3873 0.750004L28.3887 0.750001C28.5789 0.749641 28.7531 0.855908 28.8397 1.0248L28.8401 1.02546C28.9298 1.20001 28.9141 1.41028 28.7993 1.5699L28.7965 1.57381L18.9988 15.3759L18.9976 15.3775L18.9976 15.3775L18.9967 15.3788L18.9953 15.3807C18.9942 15.3822 18.9929 15.384 18.9915 15.386C18.5436 15.9941 18.3009 16.7298 18.2998 17.4857V17.4868V26.625C18.2998 26.8897 18.1563 27.0397 18.0098 27.0845L17.9856 27.0919L17.962 27.1009L12.4559 29.2001L12.4453 29.2042L12.4349 29.2085C12.3697 29.2357 12.2998 29.2497 12.2292 29.25C12.0967 29.2498 11.9688 29.1968 11.8742 29.102C11.7802 29.0071 11.7279 28.8787 11.7287 28.7453V28.7407L11.7287 17.4868L11.7287 17.4857C11.7276 16.7298 11.4849 15.9939 11.0365 15.3857C11.0352 15.3838 11.0339 15.3821 11.0329 15.3807L11.0294 15.3759L1.23198 1.57411L1.23199 1.57411L1.22934 1.57043C1.11424 1.41034 1.09872 1.19965 1.1884 1.02516L1.18845 1.02507C1.27539 0.855865 1.44968 0.749641 1.64006 0.750001V0.750002H1.64148L28.3873 0.750004ZM19.0019 15.3718L19.0004 15.3738L19.0019 15.3718ZM11.0263 15.3718C11.0251 15.3702 11.0263 15.3717 11.0278 15.3738L11.0263 15.3718Z" stroke="#515151" stroke-width="1.5"/>
</g>
<defs>
<clipPath id="clip0">
<rect width="30" height="30" fill="white"/>
</clipPath>
</defs>
</svg>
