<svg width="30" height="30" viewBox="0 0 30 30" fill="none" xmlns="http://www.w3.org/2000/svg">
<g clip-path="url(#clip0)">
<path d="M28.3873 2.25887e-06H1.64148C1.16946 -0.000890035 0.736992 0.262633 0.521355 0.682307C0.302744 1.10763 0.341112 1.61981 0.620399 2.00825L10.4189 15.8117C10.4222 15.8164 10.4258 15.8209 10.4291 15.8257C10.7851 16.3063 10.9778 16.8887 10.9787 17.4868V28.7407C10.9766 29.0738 11.1075 29.3941 11.3422 29.6306C11.5771 29.8667 11.8966 30 12.2297 30C12.3989 29.9997 12.5667 29.9661 12.7231 29.9009L18.2292 27.8017C18.7223 27.6509 19.0498 27.1854 19.0498 26.625V17.4868C19.0507 16.8887 19.2434 16.3063 19.5991 15.8257C19.6024 15.8209 19.606 15.8164 19.6092 15.8117L29.4081 2.00795C29.6874 1.61981 29.7257 1.10793 29.5071 0.682604C29.2918 0.262633 28.859 -0.000890035 28.3873 2.25887e-06Z" fill="#699C8B"/>
</g>
<defs>
<clipPath id="clip0">
<rect width="30" height="30" fill="white"/>
</clipPath>
</defs>
</svg>
