<svg width="200" height="119" viewBox="0 0 200 119" fill="none" xmlns="http://www.w3.org/2000/svg">
<path d="M113.692 37.3333C104.981 15.4506 83.7583 0 58.9595 0C26.3971 0 0 26.6391 0 59.5C0 92.3609 26.3971 119 58.9595 119C83.7584 119 104.981 103.549 113.692 81.6666H100.896C92.9256 96.9287 77.0502 107.333 58.7668 107.333C32.4827 107.333 11.1752 85.8305 11.1752 59.3055C11.1752 32.7805 32.4827 11.2777 58.7668 11.2777C77.2051 11.2777 93.1944 21.8594 101.097 37.3333H113.692Z" fill="#699C8B"/>
<path d="M79.2433 76.2222H70.5127V29.5555H79.2433V76.2222ZM91.2499 59.4817C91.2499 56.2208 91.8719 53.3143 93.1162 50.762C94.3609 48.2101 96.147 46.2353 98.4753 44.8377C100.823 43.44 103.543 42.7412 106.634 42.7412C111.029 42.7412 114.612 44.0984 117.382 46.8125C120.172 49.5265 121.727 53.2128 122.048 57.8713L122.108 60.1198C122.108 65.163 120.713 69.214 117.924 72.2726C115.134 75.3106 111.391 76.8296 106.694 76.8296C101.997 76.8296 98.2445 75.3106 95.4345 72.2726C92.6449 69.2342 91.2499 65.1023 91.2499 59.8768V59.4817ZM99.9505 60.1198C99.9505 63.2391 100.532 65.6288 101.697 67.2898C102.861 68.9305 104.527 69.7507 106.694 69.7507C108.802 69.7507 110.447 68.9406 111.631 67.3201C112.816 65.6798 113.408 63.0668 113.408 59.4817C113.408 56.4235 112.816 54.0536 111.631 52.3724C110.447 50.6912 108.782 49.8508 106.634 49.8508C104.507 49.8508 102.861 50.6912 101.697 52.3724C100.532 54.0333 99.9505 56.6156 99.9505 60.1198ZM129.812 59.5423C129.812 54.418 130.946 50.337 133.214 47.2986C135.502 44.2602 138.623 42.7412 142.577 42.7412C145.748 42.7412 148.367 43.9362 150.434 46.3263V29.5555H159.165V76.2222H151.308L150.886 72.7284C148.718 75.4627 145.929 76.8296 142.517 76.8296C138.683 76.8296 135.603 75.3106 133.274 72.2726C130.966 69.214 129.812 64.9708 129.812 59.5423ZM138.513 60.1805C138.513 63.2593 139.045 65.6187 140.108 67.2595C141.172 68.9002 142.717 69.7203 144.745 69.7203C147.434 69.7203 149.331 68.5762 150.434 66.2872V53.3143C149.351 51.0253 147.474 49.8812 144.805 49.8812C140.61 49.8812 138.513 53.3143 138.513 60.1805Z" fill="black"/>
</svg>
